<svg xmlns="http://www.w3.org/2000/svg" xmlns:xlink="http://www.w3.org/1999/xlink" viewBox="0 0 628 397.81"><defs><style>.cls-1,.cls-3{fill:none;}.cls-2{clip-path:url(#clip-path);}.cls-3{stroke:#fff;stroke-width:3.28px;}</style><clipPath id="clip-path" transform="translate(0 0)"><rect class="cls-1" width="628" height="397.81"/></clipPath></defs><title>Asset 1</title><g id="Layer_2" data-name="Layer 2"><g id="Layer_1-2" data-name="Layer 1"><g class="cls-2"><path class="cls-3" d="M626.36,307.42V272.61H497.59V394.42H626.36v-34.8H542.83V348.31h83.53V318.73H542.83V307.42ZM395.27,310.9H437c4.52,0,10.09,0,10.09,8.35s-5.57,8.35-10.09,8.35H395.27Zm97.1,8.35c0-27.15-19-46.64-46.64-46.64H350V394.42h45.25V365.89h26.62l16.88,28.53h53.6l-21.58-35C484.19,351.62,492.37,337,492.37,319.25ZM268.23,357.88c-26.62,0-31.32-11.48-31.32-24.53,0-12.88,4.53-24.19,31.32-24.19s31.33,11.48,31.33,24.19C299.56,346.22,294.86,357.88,268.23,357.88Zm0,38.29c53.43,0,76.57-20.54,76.57-62.82,0-42.12-23.14-62.48-76.57-62.48-53.59,0-76.56,20.19-76.56,62.48C191.67,375.81,214.64,396.17,268.23,396.17Zm-80-123.56H132.5L94.91,342.22,57.33,272.61H1.64V394.42H46.89V336.48l33.23,57.94h29.59l33.23-57.94v57.94h45.25Z" transform="translate(0 0)"/><path class="cls-3" d="M238.65,223.27c-26.62,0-31.32-11.49-31.32-24.54,0-12.88,4.52-24.19,31.32-24.19S270,186,270,198.73C270,211.61,265.28,223.27,238.65,223.27Zm0,38.28c53.42,0,76.57-20.53,76.57-62.82,0-42.11-23.15-62.47-76.57-62.47-53.6,0-76.57,20.18-76.57,62.47C162.08,241.19,185.05,261.55,238.65,261.55ZM113.36,138v71.87L60.81,138H1.64V259.81H46.89V187.94l52.55,71.87H158.6V138Z" transform="translate(0 0)"/><path class="cls-3" d="M366,82.21c0,36.2,27.84,44.72,77.78,44.72s77.79-8.52,77.79-42.11c0-31.84-29.76-35.15-77.79-37.06-26.45-1-30.8-.87-30.8-5.57s4.35-5.75,25.58-5.75c22.1,0,32.54,1.4,32.54,7.84h45.25c0-31.15-26.8-42.64-74.31-42.64-48,0-74.3,11.49-74.3,38.29,0,28.36,21.05,37.41,76,39.15,28.54.87,32.54,1.56,32.54,6.79,0,4.52-4,6.26-30.8,6.26-28.71,0-34.28-4-34.28-9.92ZM276.58,71.94l14.1-37.24,14.09,37.24ZM325,125.19h49.77L324.26,3.38H257.09L206.63,125.19H256.4l8.35-21.92h51.86ZM203.15,3.38H157.91V125.19h45.24ZM97.35,92.13H46.89V79.25H97.35c4.52,0,10.09,0,10.09,6.44S101.87,92.13,97.35,92.13ZM46.89,33H88.65c4.52,0,10.09,0,10.09,6.62s-5.57,6.61-10.09,6.61H46.89Zm87.53,24.19c5.91-7,9.57-15,9.57-22.79,0-18.45-8.53-31-36.2-31H1.64V125.19H113c27.67,0,39.68-16,39.68-36C152.69,76,145,64.81,134.42,57.15Z" transform="translate(0 0)"/></g></g></g></svg>