<svg width="40" height="40" viewBox="0 0 40 40" fill="none" xmlns="http://www.w3.org/2000/svg">
<path d="M20 40C31.02 40 40 31.02 40 20C40 8.98 31.02 -7.85056e-07 20 -1.74846e-06C8.98 -2.71185e-06 2.71185e-06 8.98 1.74846e-06 20C7.85056e-07 31.02 8.98 40 20 40ZM16.84 16.12C16.32 15.48 16.4 14.54 17.04 14.02C17.32 13.78 17.66 13.68 18 13.68C18.44 13.68 18.86 13.86 19.16 14.22L23.16 19.04C23.62 19.6 23.62 20.4 23.16 20.96L19.16 25.78C18.62 26.42 17.68 26.52 17.04 25.98C16.4 25.46 16.32 24.52 16.84 23.88L20.04 20L16.84 16.12Z" fill="#3DB9EB"/>
</svg>
